<?xml version="1.0" encoding="UTF-8" standalone="no"?><!DOCTYPE svg PUBLIC "-//W3C//DTD SVG 1.1//EN" "http://www.w3.org/Graphics/SVG/1.1/DTD/svg11.dtd"><svg width="100%" height="100%" viewBox="0 0 1222 1060" version="1.1" xmlns="http://www.w3.org/2000/svg" xmlns:xlink="http://www.w3.org/1999/xlink" xml:space="preserve" xmlns:serif="http://www.serif.com/" style="fill-rule:evenodd;clip-rule:evenodd;stroke-linejoin:round;"><g id="Layer-1" serif:id="Layer 1"><path id="path3054-2-9" d="M610.686,59.119l257.971,123.181l63.74,276.842l-178.488,222.034l-286.312,0.031l-178.536,-221.997l63.681,-276.855l257.944,-123.236Z" style="fill:#fff;fill-rule:nonzero;stroke:#fff;stroke-width:97.88px;"/><path id="path3055" d="M608.293,29.24c-6.214,0.313 -12.302,1.853 -17.907,4.531l-244.343,116.75c-12.803,6.114 -22.118,17.698 -25.282,31.437l-60.281,262.25c-2.811,12.203 -0.521,25.029 6.344,35.532c0.824,1.271 1.711,2.502 2.656,3.687l169.125,210.281c8.862,11.015 22.323,17.441 36.531,17.438l271.219,-0.063c14.203,0.011 27.663,-6.403 36.531,-17.406l169.063,-210.312c8.867,-11.021 12.195,-25.473 9.031,-39.219l-60.375,-262.25c-3.163,-13.74 -12.479,-25.324 -25.281,-31.438l-244.375,-116.687c-7.05,-3.368 -14.841,-4.927 -22.656,-4.531Z" style="fill:#326ce5;fill-rule:nonzero;"/><path id="path3059" d="M610.714,118.487c-8.077,0.001 -14.626,7.276 -14.625,16.25c0,0.137 0.028,0.269 0.031,0.406c-0.012,1.219 -0.071,2.688 -0.031,3.75c0.192,5.176 1.321,9.137 2,13.906c1.23,10.207 2.261,18.668 1.625,26.531c-0.619,2.966 -2.803,5.678 -4.75,7.563l-0.344,6.187c-8.777,0.728 -17.612,2.059 -26.437,4.063c-37.975,8.622 -70.671,28.183 -95.563,54.594c-1.615,-1.102 -4.441,-3.129 -5.281,-3.75c-2.611,0.352 -5.25,1.158 -8.688,-0.844c-6.545,-4.406 -12.506,-10.487 -19.719,-17.813c-3.305,-3.504 -5.698,-6.841 -9.625,-10.218c-0.891,-0.767 -2.252,-1.805 -3.25,-2.594c-3.069,-2.448 -6.69,-3.724 -10.187,-3.844c-4.496,-0.154 -8.824,1.604 -11.656,5.156c-5.036,6.316 -3.423,15.969 3.593,21.563c0.072,0.057 0.147,0.101 0.219,0.156c0.964,0.782 2.145,1.783 3.031,2.438c4.167,3.076 7.974,4.651 12.125,7.093c8.747,5.402 15.999,9.881 21.75,15.282c2.246,2.394 2.639,6.613 2.938,8.437l4.687,4.188c-25.093,37.763 -36.706,84.409 -29.843,131.937l-6.125,1.781c-1.615,2.085 -3.896,5.365 -6.282,6.344c-7.525,2.37 -15.994,3.241 -26.218,4.313c-4.801,0.399 -8.942,0.161 -14.032,1.125c-1.12,0.212 -2.68,0.618 -3.906,0.906c-0.042,0.009 -0.082,0.022 -0.125,0.031c-0.067,0.016 -0.154,0.048 -0.219,0.063c-8.62,2.082 -14.157,10.006 -12.375,17.812c1.784,7.808 10.204,12.557 18.875,10.688c0.063,-0.015 0.154,-0.017 0.219,-0.032c0.098,-0.022 0.184,-0.069 0.281,-0.093c1.209,-0.266 2.724,-0.561 3.782,-0.844c5.003,-1.34 8.627,-3.308 13.125,-5.031c9.677,-3.471 17.691,-6.37 25.5,-7.5c3.261,-0.256 6.697,2.012 8.406,2.969l6.375,-1.094c14.67,45.483 45.414,82.245 84.344,105.312l-2.657,6.375c0.958,2.476 2.014,5.825 1.301,8.27c-2.839,7.361 -7.701,15.131 -13.238,23.793c-2.681,4.002 -5.425,7.107 -7.844,11.687c-0.579,1.096 -1.316,2.78 -1.875,3.938c-3.759,8.042 -1.001,17.305 6.219,20.781c7.266,3.498 16.284,-0.191 20.187,-8.25c0.006,-0.011 0.026,-0.02 0.032,-0.031c0.004,-0.009 -0.004,-0.023 0,-0.031c0.556,-1.143 1.343,-2.645 1.812,-3.719c2.072,-4.747 2.762,-8.815 4.219,-13.406c3.87,-9.721 5.996,-19.919 11.322,-26.274c1.459,-1.741 3.837,-2.41 6.303,-3.07l3.312,-6c33.939,13.027 71.927,16.522 109.875,7.906c8.657,-1.965 17.015,-4.509 25.094,-7.562c0.931,1.651 2.661,4.825 3.125,5.625c2.506,0.815 5.241,1.236 7.469,4.531c3.985,6.809 6.711,14.864 10.031,24.594c1.458,4.591 2.178,8.659 4.25,13.406c0.472,1.082 1.256,2.605 1.813,3.75c3.894,8.085 12.942,11.787 20.218,8.281c7.22,-3.478 9.98,-12.74 6.219,-20.781c-0.559,-1.158 -1.327,-2.842 -1.906,-3.938c-2.42,-4.579 -5.163,-7.654 -7.844,-11.656c-5.537,-8.662 -10.13,-15.858 -12.969,-23.219c-1.187,-3.796 0.201,-6.157 1.125,-8.625c-0.553,-0.634 -1.738,-4.22 -2.437,-5.906c40.457,-23.888 70.298,-62.021 84.312,-106.062c1.893,0.297 5.182,0.879 6.25,1.093c2.2,-1.45 4.222,-3.343 8.188,-3.031c7.808,1.129 15.823,4.03 25.5,7.5c4.498,1.723 8.122,3.723 13.125,5.063c1.057,0.283 2.572,0.547 3.781,0.812c0.097,0.024 0.183,0.072 0.281,0.094c0.066,0.014 0.157,0.017 0.219,0.031c8.673,1.867 17.094,-2.879 18.875,-10.687c1.781,-7.807 -3.754,-15.732 -12.375,-17.813c-1.254,-0.285 -3.032,-0.769 -4.25,-1c-5.089,-0.964 -9.231,-0.726 -14.031,-1.125c-10.225,-1.071 -18.694,-1.943 -26.219,-4.312c-3.068,-1.191 -5.251,-4.842 -6.312,-6.344l-5.907,-1.719c3.063,-22.154 2.237,-45.211 -3.062,-68.281c-5.349,-23.285 -14.801,-44.581 -27.406,-63.344c1.515,-1.377 4.376,-3.911 5.187,-4.656c0.237,-2.624 0.034,-5.376 2.75,-8.281c5.751,-5.401 13.003,-9.879 21.75,-15.282c4.152,-2.442 7.99,-4.017 12.156,-7.093c0.943,-0.696 2.229,-1.798 3.219,-2.594c7.015,-5.597 8.631,-15.249 3.594,-21.563c-5.037,-6.314 -14.797,-6.909 -21.813,-1.312c-0.998,0.791 -2.353,1.822 -3.25,2.594c-3.926,3.377 -6.351,6.714 -9.656,10.218c-7.212,7.326 -13.174,13.438 -19.719,17.844c-2.836,1.651 -6.99,1.08 -8.875,0.969l-5.562,3.969c-31.719,-33.261 -74.905,-54.526 -121.406,-58.657c-0.13,-1.949 -0.301,-5.471 -0.344,-6.531c-1.904,-1.822 -4.203,-3.377 -4.781,-7.313c-0.636,-7.863 0.426,-16.324 1.656,-26.531c0.679,-4.769 1.807,-8.73 2,-13.906c0.044,-1.177 -0.026,-2.884 -0.031,-4.156c-0.001,-8.974 -6.548,-16.251 -14.625,-16.25l0,0Zm-18.313,113.437l-4.343,76.719l-0.313,0.156c-0.291,6.864 -5.94,12.344 -12.875,12.344c-2.841,0 -5.463,-0.912 -7.594,-2.469l-0.125,0.063l-62.906,-44.594c19.334,-19.011 44.063,-33.06 72.563,-39.531c5.205,-1.182 10.409,-2.059 15.593,-2.688Zm36.657,0c33.273,4.093 64.045,19.159 87.625,42.25l-62.5,44.313l-0.219,-0.094c-5.548,4.052 -13.364,3.046 -17.688,-2.375c-1.771,-2.221 -2.7,-4.832 -2.812,-7.469l-0.063,-0.031l-4.343,-76.594Zm-147.625,70.875l57.437,51.375l-0.062,0.313c5.184,4.507 5.948,12.328 1.625,17.75c-1.772,2.221 -4.143,3.71 -6.688,4.406l-0.062,0.25l-73.625,21.25c-3.748,-34.265 4.328,-67.574 21.375,-95.344Zm258.156,0.031c8.534,13.833 14.996,29.283 18.844,46.032c3.801,16.548 4.754,33.067 3.187,49.031l-74,-21.313l-0.062,-0.312c-6.627,-1.811 -10.699,-8.552 -9.157,-15.313c0.632,-2.769 2.102,-5.112 4.094,-6.843l-0.031,-0.157l57.125,-51.125l0,0Zm-140.656,55.313l23.531,0l14.625,18.281l-5.25,22.813l-21.125,10.156l-21.188,-10.188l-5.25,-22.812l14.657,-18.25Zm75.437,62.562c1,-0.05 1.996,0.04 2.969,0.219l0.125,-0.156l76.156,12.875c-11.145,31.313 -32.473,58.44 -60.969,76.594l-29.562,-71.407l0.093,-0.125c-2.715,-6.31 0.002,-13.709 6.25,-16.718c1.6,-0.771 3.271,-1.197 4.938,-1.282l0,0Zm-127.906,0.313c5.811,0.081 11.024,4.115 12.375,10.031c0.632,2.77 0.324,5.514 -0.719,7.938l0.219,0.281l-29.25,70.687c-27.347,-17.548 -49.13,-43.824 -60.781,-76.062l75.5,-12.813l0.125,0.157c0.844,-0.156 1.701,-0.231 2.531,-0.219l0,0Zm63.781,30.969c2.024,-0.075 4.079,0.341 6.031,1.281c2.56,1.232 4.537,3.173 5.782,5.5l0.281,0l37.219,67.25c-4.831,1.619 -9.797,3.003 -14.875,4.156c-28.465,6.463 -56.839,4.505 -82.532,-4.25l37.125,-67.125l0.063,0c2.227,-4.164 6.452,-6.649 10.906,-6.812Z" style="fill:#fff;fill-rule:nonzero;stroke:#fff;stroke-width:0.25px;stroke-linejoin:miter;"/><g id="text4373-4"><path id="path2985-1" d="M81.39,970.274c3.09,-3.371 6.25,-6.882 9.481,-10.534c3.37,-3.652 6.601,-7.233 9.691,-10.744c3.089,-3.652 5.968,-7.093 8.637,-10.323c2.809,-3.231 5.197,-6.04 7.163,-8.427l37.289,0c-7.444,8.567 -14.747,16.783 -21.91,24.648c-7.022,7.725 -14.747,15.731 -23.174,24.017c4.213,3.792 8.567,8.357 13.062,13.694c4.494,5.197 8.848,10.604 13.062,16.222c4.213,5.618 8.075,11.236 11.587,16.854c3.511,5.617 6.46,10.744 8.848,15.379l-36.025,0c-2.248,-3.652 -4.846,-7.655 -7.795,-12.009c-2.809,-4.494 -5.829,-8.918 -9.059,-13.272c-3.23,-4.494 -6.671,-8.778 -10.323,-12.851c-3.511,-4.073 -7.023,-7.514 -10.534,-10.323l0,48.455l-31.39,0l0,-158.426l31.39,-5.057l0,92.697" style="fill:#326de5;fill-rule:nonzero;"/><path id="path2987-3" d="M264.33,1037.27c-5.337,1.544 -12.219,2.949 -20.646,4.213c-8.427,1.404 -17.275,2.107 -26.545,2.107c-9.41,0 -17.275,-1.264 -23.595,-3.792c-6.18,-2.528 -11.095,-6.04 -14.747,-10.534c-3.652,-4.635 -6.25,-10.112 -7.795,-16.433c-1.545,-6.32 -2.317,-13.272 -2.317,-20.856l0,-61.727l31.39,0l0,57.935c0,10.112 1.334,17.415 4.003,21.91c2.668,4.494 7.654,6.741 14.957,6.741c2.248,0 4.635,-0.07 7.163,-0.21c2.528,-0.281 4.775,-0.562 6.742,-0.843l0,-85.533l31.39,0l0,107.022" style="fill:#326de5;fill-rule:nonzero;"/><path id="path2989-2" d="M364.999,984.81c0,-20.225 -7.444,-30.337 -22.332,-30.337c-3.23,0 -6.46,0.421 -9.69,1.264c-3.09,0.843 -5.618,1.896 -7.585,3.16l0,57.093c1.545,0.28 3.511,0.561 5.899,0.842c2.388,0.141 4.986,0.211 7.795,0.211c8.567,0 15.028,-2.949 19.382,-8.848c4.354,-5.899 6.531,-13.694 6.531,-23.385m32.022,0.843c0,8.848 -1.334,16.854 -4.003,24.016c-2.528,7.163 -6.25,13.273 -11.165,18.329c-4.916,5.056 -10.955,8.989 -18.118,11.798c-7.163,2.668 -15.309,4.002 -24.438,4.002c-3.792,0 -7.795,-0.21 -12.009,-0.632c-4.073,-0.281 -8.146,-0.702 -12.219,-1.264c-3.932,-0.561 -7.724,-1.193 -11.376,-1.896c-3.652,-0.842 -6.882,-1.685 -9.691,-2.528l0,-154.844l31.39,-5.057l0,55.197c3.511,-1.545 7.163,-2.739 10.955,-3.582c3.792,-0.842 7.865,-1.264 12.219,-1.264c7.865,0 14.818,1.405 20.857,4.214c6.039,2.668 11.095,6.531 15.168,11.587c4.073,5.056 7.163,11.165 9.27,18.328c2.107,7.023 3.16,14.888 3.16,23.596" style="fill:#326de5;fill-rule:nonzero;"/><path id="path2991-8" d="M415.88,986.495c0,-9.831 1.474,-18.398 4.424,-25.702c3.09,-7.443 7.092,-13.623 12.008,-18.539c4.916,-4.916 10.534,-8.637 16.854,-11.166c6.461,-2.528 13.062,-3.792 19.803,-3.792c15.73,0 28.16,4.846 37.289,14.537c9.129,9.55 13.694,23.665 13.694,42.345c0,1.826 -0.07,3.862 -0.211,6.109c-0.14,2.107 -0.281,4.003 -0.421,5.689l-71.207,0c0.702,6.46 3.721,11.587 9.059,15.379c5.337,3.792 12.499,5.688 21.488,5.688c5.758,0 11.376,-0.492 16.854,-1.475c5.618,-1.123 10.182,-2.458 13.694,-4.003l4.213,25.492c-1.685,0.843 -3.932,1.685 -6.741,2.528c-2.809,0.843 -5.97,1.545 -9.481,2.107c-3.37,0.702 -7.022,1.264 -10.955,1.685c-3.932,0.421 -7.865,0.632 -11.797,0.632c-9.972,0 -18.68,-1.475 -26.124,-4.424c-7.303,-2.949 -13.413,-6.952 -18.328,-12.008c-4.776,-5.197 -8.357,-11.307 -10.745,-18.329c-2.247,-7.022 -3.37,-14.607 -3.37,-22.753m73.735,-12.008c-0.14,-2.668 -0.632,-5.267 -1.475,-7.795c-0.702,-2.528 -1.896,-4.775 -3.581,-6.741c-1.545,-1.967 -3.582,-3.582 -6.11,-4.846c-2.387,-1.264 -5.407,-1.896 -9.058,-1.896c-3.512,0 -6.531,0.632 -9.059,1.896c-2.529,1.124 -4.635,2.669 -6.321,4.635c-1.685,1.966 -3.019,4.284 -4.002,6.952c-0.843,2.528 -1.475,5.127 -1.896,7.795l41.502,0" style="fill:#326de5;fill-rule:nonzero;"/><path id="path2993-1" d="M610.959,958.055c-2.809,-0.703 -6.109,-1.405 -9.901,-2.107c-3.792,-0.843 -7.865,-1.264 -12.219,-1.264c-1.967,0 -4.354,0.21 -7.163,0.632c-2.669,0.281 -4.705,0.632 -6.11,1.053l0,84.691l-31.39,0l0,-104.915c5.618,-1.967 12.219,-3.792 19.803,-5.478c7.725,-1.826 16.292,-2.739 25.702,-2.739c1.686,0 3.722,0.141 6.11,0.422c2.388,0.14 4.775,0.421 7.163,0.842c2.387,0.281 4.775,0.703 7.163,1.264c2.387,0.422 4.424,0.984 6.109,1.686l-5.267,25.913" style="fill:#326de5;fill-rule:nonzero;"/><path id="path2995-5" d="M633.054,934.038c5.337,-1.545 12.219,-2.95 20.646,-4.214c8.427,-1.404 17.275,-2.106 26.545,-2.106c9.41,0 17.204,1.264 23.384,3.792c6.32,2.387 11.306,5.828 14.958,10.323c3.652,4.494 6.25,9.831 7.795,16.011c1.545,6.18 2.317,13.062 2.317,20.646l0,62.57l-31.39,0l0,-58.778c0,-10.112 -1.334,-17.275 -4.003,-21.489c-2.668,-4.213 -7.654,-6.32 -14.958,-6.32c-2.247,0 -4.634,0.141 -7.162,0.421c-2.529,0.141 -4.776,0.352 -6.742,0.632l0,85.534l-31.39,0l0,-107.022" style="fill:#326de5;fill-rule:nonzero;"/><path id="path2997-7" d="M752.051,986.495c0,-9.831 1.475,-18.398 4.424,-25.702c3.09,-7.443 7.093,-13.623 12.009,-18.539c4.915,-4.916 10.533,-8.637 16.853,-11.166c6.461,-2.528 13.062,-3.792 19.804,-3.792c15.73,0 28.16,4.846 37.289,14.537c9.129,9.55 13.693,23.665 13.693,42.345c0,1.826 -0.07,3.862 -0.21,6.109c-0.141,2.107 -0.281,4.003 -0.422,5.689l-71.207,0c0.702,6.46 3.722,11.587 9.059,15.379c5.337,3.792 12.5,5.688 21.489,5.688c5.758,0 11.376,-0.492 16.853,-1.475c5.618,-1.123 10.183,-2.458 13.694,-4.003l4.214,25.492c-1.686,0.843 -3.933,1.685 -6.742,2.528c-2.809,0.843 -5.969,1.545 -9.48,2.107c-3.371,0.702 -7.023,1.264 -10.955,1.685c-3.933,0.421 -7.865,0.632 -11.798,0.632c-9.972,0 -18.68,-1.475 -26.123,-4.424c-7.304,-2.949 -13.413,-6.952 -18.329,-12.008c-4.775,-5.197 -8.357,-11.307 -10.744,-18.329c-2.247,-7.022 -3.371,-14.607 -3.371,-22.753m73.736,-12.008c-0.141,-2.668 -0.633,-5.267 -1.475,-7.795c-0.702,-2.528 -1.896,-4.775 -3.582,-6.741c-1.545,-1.967 -3.581,-3.582 -6.109,-4.846c-2.388,-1.264 -5.407,-1.896 -9.059,-1.896c-3.511,0 -6.531,0.632 -9.059,1.896c-2.528,1.124 -4.635,2.669 -6.32,4.635c-1.686,1.966 -3.02,4.284 -4.003,6.952c-0.843,2.528 -1.475,5.127 -1.896,7.795l41.503,0" style="fill:#326de5;fill-rule:nonzero;"/><path id="path2999-1" d="M879.294,902.648l31.39,-5.057l0,32.655l37.711,0l0,26.123l-37.711,0l0,38.975c0,6.601 1.124,11.868 3.371,15.8c2.388,3.933 7.093,5.899 14.115,5.899c3.371,0 6.812,-0.281 10.323,-0.843c3.652,-0.702 6.952,-1.615 9.902,-2.739l4.424,24.439c-3.792,1.544 -8.006,2.879 -12.64,4.002c-4.635,1.124 -10.323,1.686 -17.065,1.686c-8.567,0 -15.66,-1.124 -21.278,-3.371c-5.618,-2.388 -10.112,-5.618 -13.483,-9.691c-3.371,-4.213 -5.758,-9.27 -7.163,-15.168c-1.264,-5.899 -1.896,-12.43 -1.896,-19.593l0,-93.117" style="fill:#326de5;fill-rule:nonzero;"/><path id="path3001-2" d="M964.37,986.495c0,-9.831 1.475,-18.398 4.424,-25.702c3.09,-7.443 7.093,-13.623 12.008,-18.539c4.916,-4.916 10.534,-8.637 16.854,-11.166c6.461,-2.528 13.062,-3.792 19.803,-3.792c15.731,0 28.16,4.846 37.29,14.537c9.129,9.55 13.693,23.665 13.693,42.345c0,1.826 -0.07,3.862 -0.21,6.109c-0.141,2.107 -0.281,4.003 -0.422,5.689l-71.207,0c0.702,6.46 3.722,11.587 9.059,15.379c5.337,3.792 12.5,5.688 21.488,5.688c5.759,0 11.377,-0.492 16.854,-1.475c5.618,-1.123 10.183,-2.458 13.694,-4.003l4.213,25.492c-1.685,0.843 -3.932,1.685 -6.741,2.528c-2.809,0.843 -5.969,1.545 -9.48,2.107c-3.371,0.702 -7.023,1.264 -10.955,1.685c-3.933,0.421 -7.866,0.632 -11.798,0.632c-9.972,0 -18.68,-1.475 -26.123,-4.424c-7.304,-2.949 -13.413,-6.952 -18.329,-12.008c-4.775,-5.197 -8.357,-11.307 -10.744,-18.329c-2.248,-7.022 -3.371,-14.607 -3.371,-22.753m73.735,-12.008c-0.14,-2.668 -0.632,-5.267 -1.474,-7.795c-0.703,-2.528 -1.896,-4.775 -3.582,-6.741c-1.545,-1.967 -3.581,-3.582 -6.109,-4.846c-2.388,-1.264 -5.408,-1.896 -9.059,-1.896c-3.511,0 -6.531,0.632 -9.059,1.896c-2.528,1.124 -4.635,2.669 -6.32,4.635c-1.686,1.966 -3.02,4.284 -4.003,6.952c-0.843,2.528 -1.475,5.127 -1.896,7.795l41.502,0" style="fill:#326de5;fill-rule:nonzero;"/><path id="path3003-2" d="M1124.48,1018.52c5.758,0 9.831,-0.562 12.219,-1.686c2.388,-1.123 3.581,-3.3 3.581,-6.531c0,-2.528 -1.545,-4.705 -4.634,-6.53c-3.09,-1.967 -7.795,-4.144 -14.115,-6.531c-4.916,-1.826 -9.411,-3.722 -13.483,-5.688c-3.933,-1.967 -7.304,-4.284 -10.113,-6.953c-2.809,-2.809 -4.986,-6.109 -6.531,-9.901c-1.545,-3.792 -2.317,-8.357 -2.317,-13.694c0,-10.393 3.862,-18.609 11.587,-24.649c7.725,-6.039 18.328,-9.059 31.812,-9.059c6.741,0 13.202,0.632 19.381,1.896c6.18,1.124 11.096,2.388 14.748,3.792l-5.478,24.438c-3.652,-1.263 -7.654,-2.387 -12.008,-3.37c-4.214,-0.983 -8.989,-1.475 -14.326,-1.475c-9.831,0 -14.747,2.739 -14.747,8.216c0,1.264 0.211,2.388 0.632,3.371c0.421,0.983 1.264,1.966 2.528,2.949c1.264,0.843 2.949,1.826 5.056,2.95c2.247,0.983 5.056,2.107 8.427,3.371c6.882,2.528 12.57,5.056 17.065,7.584c4.494,2.388 8.005,5.056 10.533,8.005c2.669,2.809 4.494,5.97 5.478,9.481c1.123,3.511 1.685,7.584 1.685,12.219c0,10.955 -4.143,19.241 -12.43,24.859c-8.146,5.618 -19.733,8.427 -34.761,8.427c-9.831,0 -18.047,-0.843 -24.648,-2.528c-6.461,-1.685 -10.955,-3.09 -13.483,-4.213l5.266,-25.492c5.337,2.107 10.815,3.792 16.433,5.056c5.618,1.124 11.165,1.686 16.643,1.686" style="fill:#326de5;fill-rule:nonzero;"/></g></g></svg>